<svg xmlns="http://www.w3.org/2000/svg" width="240" height="74" viewBox="0 0 240 74"><title>logo-color</title>
<path d="M105.49,22.79c-2.32,0-5.08.49-8.08,4V17a4.47,4.47,0,1,0-8.93,0V48.84a4.47,4.47,0,1,0,8.93,0V36.48c0-3.55,1.68-5.51,4.74-5.51s4.59,1.9,4.59,5.51V48.84a4.46,4.46,0,1,0,8.92,0v-15C115.65,26.94,111.86,22.79,105.49,22.79Zm25.62.21a25.56,25.56,0,0,0-9.34,1.54,3.78,3.78,0,0,0-2.44,3.52,3.76,3.76,0,0,0,5,3.48,18.52,18.52,0,0,1,5.55-.79c4.79,0,5.81,2.65,5.82,4.9a20.43,20.43,0,0,0-6.68-1c-7.63,0-12,3.5-12,9.6v.11c0,5.51,4.13,9.22,10.27,9.22a11.51,11.51,0,0,0,8.45-3.22,4.12,4.12,0,0,0,4.21,3A4.29,4.29,0,0,0,144.35,49V35.83c0-4.14-1.08-7.34-3.23-9.49S135.53,23,131.11,23Zm-1.29,24.12c-2.53,0-4.1-1.2-4.1-3.14v-.11c0-2.3,1.92-3.62,5.28-3.62a12.57,12.57,0,0,1,4.86,1v1.22C135.86,45.18,133.37,47.12,129.82,47.12Zm26.49-20.28A10.79,10.79,0,0,1,165,22.79c6.72,0,13.5,5.25,13.5,15.31v.11a16,16,0,0,1-4.1,11.35,12.9,12.9,0,0,1-9.4,4,11.2,11.2,0,0,1-8.62-3.72v7.66a4.46,4.46,0,1,1-8.92,0v-30a4.46,4.46,0,0,1,8.88-.64ZM169.56,38.1c0-4.34-2.88-7.62-6.69-7.62s-6.63,3.21-6.63,7.62v.11c0,4.41,2.79,7.61,6.63,7.61s6.69-3.2,6.69-7.61Zm28.52-15.31a10.81,10.81,0,0,0-8.67,4.05,4.46,4.46,0,0,0-8.88.64v30a4.47,4.47,0,1,0,8.93,0V49.81a11.2,11.2,0,0,0,8.62,3.72,12.9,12.9,0,0,0,9.4-4,16,16,0,0,0,4.1-11.35V38.1C211.58,28,204.79,22.79,198.08,22.79ZM196,30.48c3.81,0,6.68,3.28,6.68,7.62v.11c0,4.41-2.81,7.61-6.68,7.61s-6.63-3.2-6.63-7.61V38.1C189.35,33.69,192.14,30.48,196,30.48Zm35.51-4.1c.82-2.21,2.3-3.38,4.27-3.38A4.14,4.14,0,0,1,240,27.14a6.63,6.63,0,0,1-.41,2.09L229.53,53.45c-2.53,6.14-5.17,8.32-10.08,8.32a12.67,12.67,0,0,1-4.6-.78A3.93,3.93,0,0,1,212,57.24a3.61,3.61,0,0,1,3.59-3.71,4,4,0,0,1,1.46.24,4.82,4.82,0,0,0,1.61.31,2.31,2.31,0,0,0,2.57-1.52l.2-.48-9.78-22.74a6.24,6.24,0,0,1-.46-2,4.26,4.26,0,0,1,4.4-4.3c2.07,0,3.47,1.08,4.28,3.32l5.89,15.89Z" transform="translate(0 0)" style="fill:#18bdcc"/>
<path d="M64,18.78V44.91A18.82,18.82,0,0,1,45.12,63.69h-1.9l-9.74,9.69A2.11,2.11,0,0,1,32,74a2.14,2.14,0,0,1-1.41-.53l-.16-.16h0l-9.65-9.61H18.84A18.81,18.81,0,0,1,0,44.91V18.78A18.82,18.82,0,0,1,18.85,0H45.12A18.82,18.82,0,0,1,64,18.78Z" transform="translate(0 0)" style="fill:#ffd666"/>
<path d="M14.9,36.2a2.28,2.28,0,0,0-1.84,3.62,23.2,23.2,0,0,0,37.86,0,2.29,2.29,0,0,0-1.84-3.62Z" transform="translate(0 0)" style="fill:#ffffff"/>
<path d="M25.76,27.23H14.57V21.6a5.6,5.6,0,1,1,11.19,0Z" transform="translate(0 0)" style="fill:#ffffff"/>
<path d="M49.41,27.23H38.22V21.6a5.6,5.6,0,1,1,11.19,0Z" transform="translate(0 0)" style="fill:#ffffff"/></svg>
